# xmcd CD database file
#
# Track frame offsets:
#       150
#       19634
#       33635
#       51519
#       68162
#       83219
#       99112
#       117807
#       134257
#       147686
#       163513
#       179829
#
# Disc length: 2656 seconds
#
# Revision: 1
# Processed by: cddbd v1.5.2PL0 Copyright (c) Steve Scherf et al.
# Submitted via: jack 3.1.1
#
DISCID=a90a5e0c
DTITLE=FolkRola - Maruška
DYEAR=2001
DGENRE=rock
TTITLE0=Maruška
TTITLE1=Cyber Baby
TTITLE2=V tvoji sobi še diši ...
TTITLE3=Dobro jutro madame
TTITLE4=Helena
TTITLE5=V deželi Kravat
TTITLE6=Mavrica
TTITLE7=Javi se
TTITLE8=Dvignil bom zastavo
TTITLE9=Mona
TTITLE10=Danes
TTITLE11=Maruška (instr.)
EXTD=
EXTT0=
EXTT1=
EXTT2=
EXTT3=
EXTT4=
EXTT5=
EXTT6=
EXTT7=
EXTT8=
EXTT9=
EXTT10=
EXTT11=
PLAYORDER=
